{
    "packets": [
        {
            "codec_type": "video",
            "stream_index": 0,
            "pts": 441008100,
            "pts_time": "4900.090000",
            "dts": 441008100,
            "dts_time": "4900.090000",
            "duration": 6171,
            "duration_time": "0.068567",
            "size": "20081",
            "pos": "48",
            "flags": "KD"
        },
        {
            "codec_type": "video",
            "stream_index": 0,
            "pts": 441008100,
            "pts_time": "4900.090000",
            "dts": 441008100,
            "dts_time": "4900.090000",
            "duration": 6171,
            "duration_time": "0.068567",
            "size": "1945",
            "pos": "20129",
            "flags": "_D"
        },
        {
            "codec_type": "video",
            "stream_index": 0,
            "pts": 441008100,
            "pts_time": "4900.090000",
            "dts": 441008100,
            "dts_time": "4900.090000",
            "duration": 6171,
            "duration_time": "0.068567",
            "size": "1475",
            "pos": "22074",
            "flags": "_D"
        },
        {
            "codec_type": "video",
            "stream_index": 0,
            "pts": 441008100,
            "pts_time": "4900.090000",
            "dts": 441008100,
            "dts_time": "4900.090000",
            "duration": 6171,
            "duration_time": "0.068567",
            "size": "1441",
            "pos": "23549",
            "flags": "_D"
        },
        {
            "codec_type": "video",
            "stream_index": 0,
            "pts": 441008100,
            "pts_time": "4900.090000",
            "dts": 441008100,
            "dts_time": "4900.090000",
            "duration": 6171,
            "duration_time": "0.068567",
            "size": "1518",
            "pos": "24990",
            "flags": "_D"
        },
        {
            "codec_type": "video",
            "stream_index": 0,
            "pts": 441008100,
            "pts_time": "4900.090000",
            "dts": 441008100,
            "dts_time": "4900.090000",
            "duration": 6171,
            "duration_time": "0.068567",
            "size": "1346",
            "pos": "26508",
            "flags": "_D"
        },
        {
            "codec_type": "video",
            "stream_index": 0,
            "pts": 441008100,
            "pts_time": "4900.090000",
            "dts": 441008100,
            "dts_time": "4900.090000",
            "duration": 6171,
            "duration_time": "0.068567",
            "size": "1249",
            "pos": "27854",
            "flags": "_D"
        },
        {
            "codec_type": "video",
            "stream_index": 0,
            "pts": 441008100,
            "pts_time": "4900.090000",
            "dts": 441008100,
            "dts_time": "4900.090000",
            "duration": 6171,
            "duration_time": "0.068567",
            "size": "1333",
            "pos": "29103",
            "flags": "_D"
        },
        {
            "codec_type": "video",
            "stream_index": 0,
            "pts": 441008100,
            "pts_time": "4900.090000",
            "dts": 441008100,
            "dts_time": "4900.090000",
            "duration": 6171,
            "duration_time": "0.068567",
            "size": "1100",
            "pos": "30436",
            "flags": "_D"
        },
        {
            "codec_type": "video",
            "stream_index": 0,
            "pts": 441008100,
            "pts_time": "4900.090000",
            "dts": 441008100,
            "dts_time": "4900.090000",
            "duration": 6171,
            "duration_time": "0.068567",
            "size": "1133",
            "pos": "31536",
            "flags": "_D"
        },
        {
            "codec_type": "video",
            "stream_index": 0,
            "pts": 441008100,
            "pts_time": "4900.090000",
            "dts": 441008100,
            "dts_time": "4900.090000",
            "duration": 6171,
            "duration_time": "0.068567",
            "size": "993",
            "pos": "32669",
            "flags": "_D"
        },
        {
            "codec_type": "video",
            "stream_index": 0,
            "pts": 441008100,
            "pts_time": "4900.090000",
            "dts": 441008100,
            "dts_time": "4900.090000",
            "duration": 6171,
            "duration_time": "0.068567",
            "size": "1004",
            "pos": "33662",
            "flags": "_D"
        },
        {
            "codec_type": "video",
            "stream_index": 0,
            "pts": 441008100,
            "pts_time": "4900.090000",
            "dts": 441008100,
            "dts_time": "4900.090000",
            "duration": 6171,
            "duration_time": "0.068567",
            "size": "1170",
            "pos": "34666",
            "flags": "_D"
        },
        {
            "codec_type": "video",
            "stream_index": 0,
            "pts": 441008100,
            "pts_time": "4900.090000",
            "dts": 441008100,
            "dts_time": "4900.090000",
            "duration": 6171,
            "duration_time": "0.068567",
            "size": "1085",
            "pos": "35836",
            "flags": "_D"
        },
        {
            "codec_type": "video",
            "stream_index": 0,
            "pts": 441008100,
            "pts_time": "4900.090000",
            "dts": 441008100,
            "dts_time": "4900.090000",
            "duration": 6171,
            "duration_time": "0.068567",
            "size": "994",
            "pos": "36921",
            "flags": "_D"
        },
        {
            "codec_type": "video",
            "stream_index": 0,
            "pts": 441008100,
            "pts_time": "4900.090000",
            "dts": 441008100,
            "dts_time": "4900.090000",
            "duration": 6171,
            "duration_time": "0.068567",
            "size": "1126",
            "pos": "37915",
            "flags": "_D"
        },
        {
            "codec_type": "video",
            "stream_index": 0,
            "pts": 441008100,
            "pts_time": "4900.090000",
            "dts": 441008100,
            "dts_time": "4900.090000",
            "duration": 6171,
            "duration_time": "0.068567",
            "size": "1355",
            "pos": "39041",
            "flags": "_D"
        },
        {
            "codec_type": "video",
            "stream_index": 0,
            "pts": 441008100,
            "pts_time": "4900.090000",
            "dts": 441008100,
            "dts_time": "4900.090000",
            "duration": 6171,
            "duration_time": "0.068567",
            "size": "1208",
            "pos": "40396",
            "flags": "_D"
        },
        {
            "codec_type": "video",
            "stream_index": 0,
            "pts": 441008100,
            "pts_time": "4900.090000",
            "dts": 441008100,
            "dts_time": "4900.090000",
            "duration": 6171,
            "duration_time": "0.068567",
            "size": "790",
            "pos": "41604",
            "flags": "_D"
        },
        {
            "codec_type": "video",
            "stream_index": 0,
            "pts": 441008100,
            "pts_time": "4900.090000",
            "dts": 441008100,
            "dts_time": "4900.090000",
            "duration": 6171,
            "duration_time": "0.068567",
            "size": "1146",
            "pos": "42394",
            "flags": "_D"
        },
        {
            "codec_type": "video",
            "stream_index": 0,
            "pts": 441008100,
            "pts_time": "4900.090000",
            "dts": 441008100,
            "dts_time": "4900.090000",
            "duration": 6171,
            "duration_time": "0.068567",
            "size": "1086",
            "pos": "43540",
            "flags": "_D"
        },
        {
            "codec_type": "video",
            "stream_index": 0,
            "pts": 441008100,
            "pts_time": "4900.090000",
            "dts": 441008100,
            "dts_time": "4900.090000",
            "duration": 6171,
            "duration_time": "0.068567",
            "size": "1209",
            "pos": "44626",
            "flags": "_D"
        },
        {
            "codec_type": "video",
            "stream_index": 0,
            "pts": 441008100,
            "pts_time": "4900.090000",
            "dts": 441008100,
            "dts_time": "4900.090000",
            "duration": 6171,
            "duration_time": "0.068567",
            "size": "1031",
            "pos": "45835",
            "flags": "_D"
        },
        {
            "codec_type": "video",
            "stream_index": 0,
            "pts": 441008100,
            "pts_time": "4900.090000",
            "dts": 441008100,
            "dts_time": "4900.090000",
            "duration": 6171,
            "duration_time": "0.068567",
            "size": "1031",
            "pos": "46866",
            "flags": "_D"
        },
        {
            "codec_type": "video",
            "stream_index": 0,
            "pts": 441008100,
            "pts_time": "4900.090000",
            "dts": 441008100,
            "dts_time": "4900.090000",
            "duration": 6171,
            "duration_time": "0.068567",
            "size": "1172",
            "pos": "47897",
            "flags": "_D"
        },
        {
            "codec_type": "video",
            "stream_index": 0,
            "pts": 441008100,
            "pts_time": "4900.090000",
            "dts": 441008100,
            "dts_time": "4900.090000",
            "duration": 6171,
            "duration_time": "0.068567",
            "size": "1076",
            "pos": "49069",
            "flags": "_D"
        },
        {
            "codec_type": "video",
            "stream_index": 0,
            "pts": 441008100,
            "pts_time": "4900.090000",
            "dts": 441008100,
            "dts_time": "4900.090000",
            "duration": 6171,
            "duration_time": "0.068567",
            "size": "842",
            "pos": "50145",
            "flags": "_D"
        },
        {
            "codec_type": "video",
            "stream_index": 0,
            "pts": 441008100,
            "pts_time": "4900.090000",
            "dts": 441008100,
            "dts_time": "4900.090000",
            "duration": 6171,
            "duration_time": "0.068567",
            "size": "833",
            "pos": "50987",
            "flags": "_D"
        },
        {
            "codec_type": "video",
            "stream_index": 0,
            "pts": 441008100,
            "pts_time": "4900.090000",
            "dts": 441008100,
            "dts_time": "4900.090000",
            "duration": 6171,
            "duration_time": "0.068567",
            "size": "710",
            "pos": "51820",
            "flags": "_D"
        },
        {
            "codec_type": "video",
            "stream_index": 0,
            "pts": 441008100,
            "pts_time": "4900.090000",
            "dts": 441008100,
            "dts_time": "4900.090000",
            "duration": 6171,
            "duration_time": "0.068567",
            "size": "807",
            "pos": "52530",
            "flags": "_D"
        },
        {
            "codec_type": "video",
            "stream_index": 0,
            "pts": 441008100,
            "pts_time": "4900.090000",
            "dts": 441008100,
            "dts_time": "4900.090000",
            "duration": 6171,
            "duration_time": "0.068567",
            "size": "797",
            "pos": "53337",
            "flags": "_D"
        },
        {
            "codec_type": "video",
            "stream_index": 0,
            "pts": 441008100,
            "pts_time": "4900.090000",
            "dts": 441008100,
            "dts_time": "4900.090000",
            "duration": 6171,
            "duration_time": "0.068567",
            "size": "800",
            "pos": "54134",
            "flags": "_D"
        },
        {
            "codec_type": "video",
            "stream_index": 0,
            "pts": 441008100,
            "pts_time": "4900.090000",
            "dts": 441008100,
            "dts_time": "4900.090000",
            "duration": 6171,
            "duration_time": "0.068567",
            "size": "731",
            "pos": "54934",
            "flags": "_D"
        },
        {
            "codec_type": "video",
            "stream_index": 0,
            "pts": 441008100,
            "pts_time": "4900.090000",
            "dts": 441008100,
            "dts_time": "4900.090000",
            "duration": 6171,
            "duration_time": "0.068567",
            "size": "613",
            "pos": "55665",
            "flags": "_D"
        },
        {
            "codec_type": "video",
            "stream_index": 0,
            "pts": 441008100,
            "pts_time": "4900.090000",
            "dts": 441008100,
            "dts_time": "4900.090000",
            "duration": 6171,
            "duration_time": "0.068567",
            "size": "543",
            "pos": "56278",
            "flags": "_D"
        },
        {
            "codec_type": "video",
            "stream_index": 0,
            "pts": 441008100,
            "pts_time": "4900.090000",
            "dts": 441008100,
            "dts_time": "4900.090000",
            "duration": 6171,
            "duration_time": "0.068567",
            "size": "615",
            "pos": "56821",
            "flags": "_D"
        },
        {
            "codec_type": "video",
            "stream_index": 0,
            "pts": 441008100,
            "pts_time": "4900.090000",
            "dts": 441008100,
            "dts_time": "4900.090000",
            "duration": 6171,
            "duration_time": "0.068567",
            "size": "423",
            "pos": "57436",
            "flags": "_D"
        },
        {
            "codec_type": "video",
            "stream_index": 0,
            "pts": 441008100,
            "pts_time": "4900.090000",
            "dts": 441008100,
            "dts_time": "4900.090000",
            "duration": 6171,
            "duration_time": "0.068567",
            "size": "414",
            "pos": "57859",
            "flags": "_D"
        },
        {
            "codec_type": "video",
            "stream_index": 0,
            "pts": 441008100,
            "pts_time": "4900.090000",
            "dts": 441008100,
            "dts_time": "4900.090000",
            "duration": 6171,
            "duration_time": "0.068567",
            "size": "551",
            "pos": "58273",
            "flags": "_D"
        },
        {
            "codec_type": "video",
            "stream_index": 0,
            "pts": 441008100,
            "pts_time": "4900.090000",
            "dts": 441008100,
            "dts_time": "4900.090000",
            "duration": 6171,
            "duration_time": "0.068567",
            "size": "641",
            "pos": "58824",
            "flags": "_D"
        },
        {
            "codec_type": "video",
            "stream_index": 0,
            "pts": 441008100,
            "pts_time": "4900.090000",
            "dts": 441008100,
            "dts_time": "4900.090000",
            "duration": 6171,
            "duration_time": "0.068567",
            "size": "693",
            "pos": "59465",
            "flags": "_D"
        },
        {
            "codec_type": "video",
            "stream_index": 0,
            "pts": 441008100,
            "pts_time": "4900.090000",
            "dts": 441008100,
            "dts_time": "4900.090000",
            "duration": 6171,
            "duration_time": "0.068567",
            "size": "618",
            "pos": "60158",
            "flags": "_D"
        },
        {
            "codec_type": "video",
            "stream_index": 0,
            "pts": 441008100,
            "pts_time": "4900.090000",
            "dts": 441008100,
            "dts_time": "4900.090000",
            "duration": 6171,
            "duration_time": "0.068567",
            "size": "622",
            "pos": "60776",
            "flags": "_D"
        },
        {
            "codec_type": "video",
            "stream_index": 0,
            "pts": 441008100,
            "pts_time": "4900.090000",
            "dts": 441008100,
            "dts_time": "4900.090000",
            "duration": 6171,
            "duration_time": "0.068567",
            "size": "708",
            "pos": "61398",
            "flags": "_D"
        },
        {
            "codec_type": "video",
            "stream_index": 0,
            "pts": 441008100,
            "pts_time": "4900.090000",
            "dts": 441008100,
            "dts_time": "4900.090000",
            "duration": 6171,
            "duration_time": "0.068567",
            "size": "573",
            "pos": "62106",
            "flags": "_D"
        },
        {
            "codec_type": "video",
            "stream_index": 0,
            "pts": 441008100,
            "pts_time": "4900.090000",
            "dts": 441008100,
            "dts_time": "4900.090000",
            "duration": 6171,
            "duration_time": "0.068567",
            "size": "591",
            "pos": "62679",
            "flags": "_D"
        },
        {
            "codec_type": "video",
            "stream_index": 0,
            "pts": 441008100,
            "pts_time": "4900.090000",
            "dts": 441008100,
            "dts_time": "4900.090000",
            "duration": 6171,
            "duration_time": "0.068567",
            "size": "494",
            "pos": "63270",
            "flags": "_D"
        },
        {
            "codec_type": "video",
            "stream_index": 0,
            "pts": 441008100,
            "pts_time": "4900.090000",
            "dts": 441008100,
            "dts_time": "4900.090000",
            "duration": 6171,
            "duration_time": "0.068567",
            "size": "513",
            "pos": "63764",
            "flags": "_D"
        },
        {
            "codec_type": "video",
            "stream_index": 0,
            "pts": 441008100,
            "pts_time": "4900.090000",
            "dts": 441008100,
            "dts_time": "4900.090000",
            "duration": 6171,
            "duration_time": "0.068567",
            "size": "532",
            "pos": "64277",
            "flags": "_D"
        },
        {
            "codec_type": "video",
            "stream_index": 0,
            "pts": 441008100,
            "pts_time": "4900.090000",
            "dts": 441008100,
            "dts_time": "4900.090000",
            "duration": 6171,
            "duration_time": "0.068567",
            "size": "435",
            "pos": "64809",
            "flags": "_D"
        },
        {
            "codec_type": "video",
            "stream_index": 0,
            "pts": 441008100,
            "pts_time": "4900.090000",
            "dts": 441008100,
            "dts_time": "4900.090000",
            "duration": 6171,
            "duration_time": "0.068567",
            "size": "444",
            "pos": "65244",
            "flags": "_D"
        },
        {
            "codec_type": "video",
            "stream_index": 0,
            "pts": 441008100,
            "pts_time": "4900.090000",
            "dts": 441008100,
            "dts_time": "4900.090000",
            "duration": 6171,
            "duration_time": "0.068567",
            "size": "434",
            "pos": "65688",
            "flags": "_D"
        },
        {
            "codec_type": "video",
            "stream_index": 0,
            "pts": 441008100,
            "pts_time": "4900.090000",
            "dts": 441008100,
            "dts_time": "4900.090000",
            "duration": 6171,
            "duration_time": "0.068567",
            "size": "429",
            "pos": "66122",
            "flags": "_D"
        },
        {
            "codec_type": "video",
            "stream_index": 0,
            "pts": 441008100,
            "pts_time": "4900.090000",
            "dts": 441008100,
            "dts_time": "4900.090000",
            "duration": 6171,
            "duration_time": "0.068567",
            "size": "475",
            "pos": "66551",
            "flags": "_D"
        },
        {
            "codec_type": "video",
            "stream_index": 0,
            "pts": 441008100,
            "pts_time": "4900.090000",
            "dts": 441008100,
            "dts_time": "4900.090000",
            "duration": 6171,
            "duration_time": "0.068567",
            "size": "561",
            "pos": "67026",
            "flags": "_D"
        },
        {
            "codec_type": "video",
            "stream_index": 0,
            "pts": 441008100,
            "pts_time": "4900.090000",
            "dts": 441008100,
            "dts_time": "4900.090000",
            "duration": 6171,
            "duration_time": "0.068567",
            "size": "537",
            "pos": "67587",
            "flags": "_D"
        },
        {
            "codec_type": "video",
            "stream_index": 0,
            "pts": 441008100,
            "pts_time": "4900.090000",
            "dts": 441008100,
            "dts_time": "4900.090000",
            "duration": 6171,
            "duration_time": "0.068567",
            "size": "496",
            "pos": "68124",
            "flags": "_D"
        },
        {
            "codec_type": "video",
            "stream_index": 0,
            "pts": 441008100,
            "pts_time": "4900.090000",
            "dts": 441008100,
            "dts_time": "4900.090000",
            "duration": 6171,
            "duration_time": "0.068567",
            "size": "552",
            "pos": "68620",
            "flags": "_D"
        },
        {
            "codec_type": "video",
            "stream_index": 0,
            "pts": 441008100,
            "pts_time": "4900.090000",
            "dts": 441008100,
            "dts_time": "4900.090000",
            "duration": 6171,
            "duration_time": "0.068567",
            "size": "522",
            "pos": "69172",
            "flags": "_D"
        },
        {
            "codec_type": "video",
            "stream_index": 0,
            "pts": 441008100,
            "pts_time": "4900.090000",
            "dts": 441008100,
            "dts_time": "4900.090000",
            "duration": 6171,
            "duration_time": "0.068567",
            "size": "522",
            "pos": "69694",
            "flags": "_D"
        },
        {
            "codec_type": "video",
            "stream_index": 0,
            "pts": 441008100,
            "pts_time": "4900.090000",
            "dts": 441008100,
            "dts_time": "4900.090000",
            "duration": 6171,
            "duration_time": "0.068567",
            "size": "504",
            "pos": "70216",
            "flags": "_D"
        },
        {
            "codec_type": "video",
            "stream_index": 0,
            "pts": 441008100,
            "pts_time": "4900.090000",
            "dts": 441008100,
            "dts_time": "4900.090000",
            "duration": 6171,
            "duration_time": "0.068567",
            "size": "559",
            "pos": "70720",
            "flags": "_D"
        },
        {
            "codec_type": "video",
            "stream_index": 0,
            "pts": 441008100,
            "pts_time": "4900.090000",
            "dts": 441008100,
            "dts_time": "4900.090000",
            "duration": 6171,
            "duration_time": "0.068567",
            "size": "617",
            "pos": "71279",
            "flags": "_D"
        },
        {
            "codec_type": "video",
            "stream_index": 0,
            "pts": 441008100,
            "pts_time": "4900.090000",
            "dts": 441008100,
            "dts_time": "4900.090000",
            "duration": 6171,
            "duration_time": "0.068567",
            "size": "666",
            "pos": "71896",
            "flags": "_D"
        },
        {
            "codec_type": "video",
            "stream_index": 0,
            "pts": 441008100,
            "pts_time": "4900.090000",
            "dts": 441008100,
            "dts_time": "4900.090000",
            "duration": 6171,
            "duration_time": "0.068567",
            "size": "634",
            "pos": "72562",
            "flags": "_D"
        },
        {
            "codec_type": "video",
            "stream_index": 0,
            "pts": 441008100,
            "pts_time": "4900.090000",
            "dts": 441008100,
            "dts_time": "4900.090000",
            "duration": 6171,
            "duration_time": "0.068567",
            "size": "636",
            "pos": "73196",
            "flags": "_D"
        },
        {
            "codec_type": "video",
            "stream_index": 0,
            "pts": 441008100,
            "pts_time": "4900.090000",
            "dts": 441008100,
            "dts_time": "4900.090000",
            "duration": 6171,
            "duration_time": "0.068567",
            "size": "777",
            "pos": "73832",
            "flags": "_D"
        },
        {
            "codec_type": "video",
            "stream_index": 0,
            "pts": 441008100,
            "pts_time": "4900.090000",
            "dts": 441008100,
            "dts_time": "4900.090000",
            "duration": 6171,
            "duration_time": "0.068567",
            "size": "923",
            "pos": "74609",
            "flags": "_D"
        },
        {
            "codec_type": "video",
            "stream_index": 0,
            "pts": 441008100,
            "pts_time": "4900.090000",
            "dts": 441008100,
            "dts_time": "4900.090000",
            "duration": 6171,
            "duration_time": "0.068567",
            "size": "1109",
            "pos": "75532",
            "flags": "_D"
        },
        {
            "codec_type": "video",
            "stream_index": 0,
            "pts": 441008100,
            "pts_time": "4900.090000",
            "dts": 441008100,
            "dts_time": "4900.090000",
            "duration": 6171,
            "duration_time": "0.068567",
            "size": "1286",
            "pos": "76641",
            "flags": "_D"
        },
        {
            "codec_type": "video",
            "stream_index": 0,
            "pts": 441008100,
            "pts_time": "4900.090000",
            "dts": 441008100,
            "dts_time": "4900.090000",
            "duration": 6171,
            "duration_time": "0.068567",
            "size": "1430",
            "pos": "77927",
            "flags": "_D"
        },
        {
            "codec_type": "video",
            "stream_index": 0,
            "pts": 441008100,
            "pts_time": "4900.090000",
            "dts": 441008100,
            "dts_time": "4900.090000",
            "duration": 6171,
            "duration_time": "0.068567",
            "size": "1451",
            "pos": "79357",
            "flags": "_D"
        },
        {
            "codec_type": "video",
            "stream_index": 0,
            "pts": 441008100,
            "pts_time": "4900.090000",
            "dts": 441008100,
            "dts_time": "4900.090000",
            "duration": 6171,
            "duration_time": "0.068567",
            "size": "1584",
            "pos": "80808",
            "flags": "_D"
        },
        {
            "codec_type": "video",
            "stream_index": 0,
            "pts": 441008100,
            "pts_time": "4900.090000",
            "dts": 441008100,
            "dts_time": "4900.090000",
            "duration": 6171,
            "duration_time": "0.068567",
            "size": "1945",
            "pos": "82392",
            "flags": "_D"
        },
        {
            "codec_type": "video",
            "stream_index": 0,
            "pts": 441008100,
            "pts_time": "4900.090000",
            "dts": 441008100,
            "dts_time": "4900.090000",
            "duration": 6171,
            "duration_time": "0.068567",
            "size": "1934",
            "pos": "84337",
            "flags": "_D"
        },
        {
            "codec_type": "video",
            "stream_index": 0,
            "pts": 441008100,
            "pts_time": "4900.090000",
            "dts": 441008100,
            "dts_time": "4900.090000",
            "duration": 6171,
            "duration_time": "0.068567",
            "size": "2286",
            "pos": "86271",
            "flags": "_D"
        },
        {
            "codec_type": "video",
            "stream_index": 0,
            "pts": 441008100,
            "pts_time": "4900.090000",
            "dts": 441008100,
            "dts_time": "4900.090000",
            "duration": 6171,
            "duration_time": "0.068567",
            "size": "2485",
            "pos": "88557",
            "flags": "_D"
        },
        {
            "codec_type": "video",
            "stream_index": 0,
            "pts": 441008100,
            "pts_time": "4900.090000",
            "dts": 441008100,
            "dts_time": "4900.090000",
            "duration": 6171,
            "duration_time": "0.068567",
            "size": "1964",
            "pos": "91042",
            "flags": "_D"
        },
        {
            "codec_type": "video",
            "stream_index": 0,
            "pts": 441008100,
            "pts_time": "4900.090000",
            "dts": 441008100,
            "dts_time": "4900.090000",
            "duration": 6171,
            "duration_time": "0.068567",
            "size": "1588",
            "pos": "93006",
            "flags": "_D"
        },
        {
            "codec_type": "video",
            "stream_index": 0,
            "pts": 441008100,
            "pts_time": "4900.090000",
            "dts": 441008100,
            "dts_time": "4900.090000",
            "duration": 6171,
            "duration_time": "0.068567",
            "size": "1590",
            "pos": "94594",
            "flags": "_D"
        },
        {
            "codec_type": "video",
            "stream_index": 0,
            "pts": 441008100,
            "pts_time": "4900.090000",
            "dts": 441008100,
            "dts_time": "4900.090000",
            "duration": 6171,
            "duration_time": "0.068567",
            "size": "1467",
            "pos": "96184",
            "flags": "_D"
        },
        {
            "codec_type": "video",
            "stream_index": 0,
            "pts": 441008100,
            "pts_time": "4900.090000",
            "dts": 441008100,
            "dts_time": "4900.090000",
            "duration": 6171,
            "duration_time": "0.068567",
            "size": "1447",
            "pos": "97651",
            "flags": "_D"
        },
        {
            "codec_type": "video",
            "stream_index": 0,
            "pts": 441008100,
            "pts_time": "4900.090000",
            "dts": 441008100,
            "dts_time": "4900.090000",
            "duration": 6171,
            "duration_time": "0.068567",
            "size": "1669",
            "pos": "99098",
            "flags": "_D"
        },
        {
            "codec_type": "video",
            "stream_index": 0,
            "pts": 441008100,
            "pts_time": "4900.090000",
            "dts": 441008100,
            "dts_time": "4900.090000",
            "duration": 6171,
            "duration_time": "0.068567",
            "size": "1421",
            "pos": "100767",
            "flags": "_D"
        },
        {
            "codec_type": "video",
            "stream_index": 0,
            "pts": 441008100,
            "pts_time": "4900.090000",
            "dts": 441008100,
            "dts_time": "4900.090000",
            "duration": 6171,
            "duration_time": "0.068567",
            "size": "1565",
            "pos": "102188",
            "flags": "_D"
        },
        {
            "codec_type": "video",
            "stream_index": 0,
            "pts": 441008100,
            "pts_time": "4900.090000",
            "dts": 441008100,
            "dts_time": "4900.090000",
            "duration": 6171,
            "duration_time": "0.068567",
            "size": "1533",
            "pos": "103753",
            "flags": "_D"
        },
        {
            "codec_type": "video",
            "stream_index": 0,
            "pts": 441008100,
            "pts_time": "4900.090000",
            "dts": 441008100,
            "dts_time": "4900.090000",
            "duration": 6171,
            "duration_time": "0.068567",
            "size": "1292",
            "pos": "105286",
            "flags": "_D"
        },
        {
            "codec_type": "video",
            "stream_index": 0,
            "pts": 441008100,
            "pts_time": "4900.090000",
            "dts": 441008100,
            "dts_time": "4900.090000",
            "duration": 6171,
            "duration_time": "0.068567",
            "size": "1139",
            "pos": "106578",
            "flags": "_D"
        },
        {
            "codec_type": "video",
            "stream_index": 0,
            "pts": 441008100,
            "pts_time": "4900.090000",
            "dts": 441008100,
            "dts_time": "4900.090000",
            "duration": 6171,
            "duration_time": "0.068567",
            "size": "1207",
            "pos": "107717",
            "flags": "_D"
        },
        {
            "codec_type": "video",
            "stream_index": 0,
            "pts": 441008100,
            "pts_time": "4900.090000",
            "dts": 441008100,
            "dts_time": "4900.090000",
            "duration": 6171,
            "duration_time": "0.068567",
            "size": "1159",
            "pos": "108924",
            "flags": "_D"
        },
        {
            "codec_type": "video",
            "stream_index": 0,
            "pts": 441008100,
            "pts_time": "4900.090000",
            "dts": 441008100,
            "dts_time": "4900.090000",
            "duration": 6171,
            "duration_time": "0.068567",
            "size": "877",
            "pos": "110083",
            "flags": "_D"
        },
        {
            "codec_type": "video",
            "stream_index": 0,
            "pts": 441008100,
            "pts_time": "4900.090000",
            "dts": 441008100,
            "dts_time": "4900.090000",
            "duration": 6171,
            "duration_time": "0.068567",
            "size": "1183",
            "pos": "110960",
            "flags": "_D"
        },
        {
            "codec_type": "video",
            "stream_index": 0,
            "pts": 441008100,
            "pts_time": "4900.090000",
            "dts": 441008100,
            "dts_time": "4900.090000",
            "duration": 6171,
            "duration_time": "0.068567",
            "size": "2142",
            "pos": "112143",
            "flags": "_D"
        },
        {
            "codec_type": "video",
            "stream_index": 0,
            "pts": 441008100,
            "pts_time": "4900.090000",
            "dts": 441008100,
            "dts_time": "4900.090000",
            "duration": 6171,
            "duration_time": "0.068567",
            "size": "1364",
            "pos": "114285",
            "flags": "_D"
        },
        {
            "codec_type": "video",
            "stream_index": 0,
            "pts": 441008100,
            "pts_time": "4900.090000",
            "dts": 441008100,
            "dts_time": "4900.090000",
            "duration": 6171,
            "duration_time": "0.068567",
            "size": "1096",
            "pos": "115649",
            "flags": "_D"
        },
        {
            "codec_type": "video",
            "stream_index": 0,
            "pts": 441008100,
            "pts_time": "4900.090000",
            "dts": 441008100,
            "dts_time": "4900.090000",
            "duration": 6171,
            "duration_time": "0.068567",
            "size": "1240",
            "pos": "116745",
            "flags": "_D"
        },
        {
            "codec_type": "video",
            "stream_index": 0,
            "pts": 441008100,
            "pts_time": "4900.090000",
            "dts": 441008100,
            "dts_time": "4900.090000",
            "duration": 6171,
            "duration_time": "0.068567",
            "size": "1147",
            "pos": "117985",
            "flags": "_D"
        },
        {
            "codec_type": "video",
            "stream_index": 0,
            "pts": 441008100,
            "pts_time": "4900.090000",
            "dts": 441008100,
            "dts_time": "4900.090000",
            "duration": 6171,
            "duration_time": "0.068567",
            "size": "1105",
            "pos": "119132",
            "flags": "_D"
        },
        {
            "codec_type": "video",
            "stream_index": 0,
            "pts": 441008100,
            "pts_time": "4900.090000",
            "dts": 441008100,
            "dts_time": "4900.090000",
            "duration": 6171,
            "duration_time": "0.068567",
            "size": "1107",
            "pos": "120237",
            "flags": "_D"
        },
        {
            "codec_type": "video",
            "stream_index": 0,
            "pts": 441008100,
            "pts_time": "4900.090000",
            "dts": 441008100,
            "dts_time": "4900.090000",
            "duration": 6171,
            "duration_time": "0.068567",
            "size": "2061",
            "pos": "121344",
            "flags": "_D"
        },
        {
            "codec_type": "video",
            "stream_index": 0,
            "pts": 441008100,
            "pts_time": "4900.090000",
            "dts": 441008100,
            "dts_time": "4900.090000",
            "duration": 6171,
            "duration_time": "0.068567",
            "size": "1435",
            "pos": "123405",
            "flags": "_D"
        },
        {
            "codec_type": "video",
            "stream_index": 0,
            "pts": 441008100,
            "pts_time": "4900.090000",
            "dts": 441008100,
            "dts_time": "4900.090000",
            "duration": 6171,
            "duration_time": "0.068567",
            "size": "1338",
            "pos": "124840",
            "flags": "_D"
        },
        {
            "codec_type": "video",
            "stream_index": 0,
            "pts": 441008100,
            "pts_time": "4900.090000",
            "dts": 441008100,
            "dts_time": "4900.090000",
            "duration": 6171,
            "duration_time": "0.068567",
            "size": "988",
            "pos": "126178",
            "flags": "_D"
        },
        {
            "codec_type": "video",
            "stream_index": 0,
            "pts": 441008100,
            "pts_time": "4900.090000",
            "dts": 441008100,
            "dts_time": "4900.090000",
            "duration": 6171,
            "duration_time": "0.068567",
            "size": "955",
            "pos": "127166",
            "flags": "_D"
        },
        {
            "codec_type": "video",
            "stream_index": 0,
            "pts": 441008100,
            "pts_time": "4900.090000",
            "dts": 441008100,
            "dts_time": "4900.090000",
            "duration": 6171,
            "duration_time": "0.068567",
            "size": "779",
            "pos": "128121",
            "flags": "_D"
        },
        {
            "codec_type": "video",
            "stream_index": 0,
            "pts": 441008100,
            "pts_time": "4900.090000",
            "dts": 441008100,
            "dts_time": "4900.090000",
            "duration": 6171,
            "duration_time": "0.068567",
            "size": "1247",
            "pos": "128900",
            "flags": "_D"
        },
        {
            "codec_type": "video",
            "stream_index": 0,
            "pts": 441008100,
            "pts_time": "4900.090000",
            "dts": 441008100,
            "dts_time": "4900.090000",
            "duration": 6171,
            "duration_time": "0.068567",
            "size": "1117",
            "pos": "130147",
            "flags": "_D"
        },
        {
            "codec_type": "video",
            "stream_index": 0,
            "pts": 441008100,
            "pts_time": "4900.090000",
            "dts": 441008100,
            "dts_time": "4900.090000",
            "duration": 6171,
            "duration_time": "0.068567",
            "size": "855",
            "pos": "131264",
            "flags": "_D"
        },
        {
            "codec_type": "video",
            "stream_index": 0,
            "pts": 441008100,
            "pts_time": "4900.090000",
            "dts": 441008100,
            "dts_time": "4900.090000",
            "duration": 6171,
            "duration_time": "0.068567",
            "size": "738",
            "pos": "132119",
            "flags": "_D"
        },
        {
            "codec_type": "video",
            "stream_index": 0,
            "pts": 441008100,
            "pts_time": "4900.090000",
            "dts": 441008100,
            "dts_time": "4900.090000",
            "duration": 6171,
            "duration_time": "0.068567",
            "size": "591",
            "pos": "132857",
            "flags": "_D"
        },
        {
            "codec_type": "video",
            "stream_index": 0,
            "pts": 441008100,
            "pts_time": "4900.090000",
            "dts": 441008100,
            "dts_time": "4900.090000",
            "duration": 6171,
            "duration_time": "0.068567",
            "size": "563",
            "pos": "133448",
            "flags": "_D"
        },
        {
            "codec_type": "video",
            "stream_index": 0,
            "pts": 441008100,
            "pts_time": "4900.090000",
            "dts": 441008100,
            "dts_time": "4900.090000",
            "duration": 6171,
            "duration_time": "0.068567",
            "size": "570",
            "pos": "134011",
            "flags": "_D"
        },
        {
            "codec_type": "video",
            "stream_index": 0,
            "pts": 441008100,
            "pts_time": "4900.090000",
            "dts": 441008100,
            "dts_time": "4900.090000",
            "duration": 6171,
            "duration_time": "0.068567",
            "size": "936",
            "pos": "134581",
            "flags": "_D"
        },
        {
            "codec_type": "video",
            "stream_index": 0,
            "pts": 441008100,
            "pts_time": "4900.090000",
            "dts": 441008100,
            "dts_time": "4900.090000",
            "duration": 6171,
            "duration_time": "0.068567",
            "size": "909",
            "pos": "135517",
            "flags": "_D"
        },
        {
            "codec_type": "video",
            "stream_index": 0,
            "pts": 441008100,
            "pts_time": "4900.090000",
            "dts": 441008100,
            "dts_time": "4900.090000",
            "duration": 6171,
            "duration_time": "0.068567",
            "size": "882",
            "pos": "136426",
            "flags": "_D"
        },
        {
            "codec_type": "video",
            "stream_index": 0,
            "pts": 441008100,
            "pts_time": "4900.090000",
            "dts": 441008100,
            "dts_time": "4900.090000",
            "duration": 6171,
            "duration_time": "0.068567",
            "size": "967",
            "pos": "137308",
            "flags": "_D"
        },
        {
            "codec_type": "video",
            "stream_index": 0,
            "pts": 441008100,
            "pts_time": "4900.090000",
            "dts": 441008100,
            "dts_time": "4900.090000",
            "duration": 6171,
            "duration_time": "0.068567",
            "size": "888",
            "pos": "138275",
            "flags": "_D"
        },
        {
            "codec_type": "video",
            "stream_index": 0,
            "pts": 441008100,
            "pts_time": "4900.090000",
            "dts": 441008100,
            "dts_time": "4900.090000",
            "duration": 6171,
            "duration_time": "0.068567",
            "size": "1080",
            "pos": "139163",
            "flags": "_D"
        },
        {
            "codec_type": "video",
            "stream_index": 0,
            "pts": 441008100,
            "pts_time": "4900.090000",
            "dts": 441008100,
            "dts_time": "4900.090000",
            "duration": 6171,
            "duration_time": "0.068567",
            "size": "1065",
            "pos": "140243",
            "flags": "_D"
        },
        {
            "codec_type": "video",
            "stream_index": 0,
            "pts": 441008100,
            "pts_time": "4900.090000",
            "dts": 441008100,
            "dts_time": "4900.090000",
            "duration": 6171,
            "duration_time": "0.068567",
            "size": "876",
            "pos": "141308",
            "flags": "_D"
        },
        {
            "codec_type": "video",
            "stream_index": 0,
            "pts": 441008100,
            "pts_time": "4900.090000",
            "dts": 441008100,
            "dts_time": "4900.090000",
            "duration": 6171,
            "duration_time": "0.068567",
            "size": "1044",
            "pos": "142184",
            "flags": "_D"
        },
        {
            "codec_type": "video",
            "stream_index": 0,
            "pts": 441008100,
            "pts_time": "4900.090000",
            "dts": 441008100,
            "dts_time": "4900.090000",
            "duration": 6171,
            "duration_time": "0.068567",
            "size": "1448",
            "pos": "143228",
            "flags": "_D"
        },
        {
            "codec_type": "video",
            "stream_index": 0,
            "pts": 441008100,
            "pts_time": "4900.090000",
            "dts": 441008100,
            "dts_time": "4900.090000",
            "duration": 6171,
            "duration_time": "0.068567",
            "size": "1143",
            "pos": "144676",
            "flags": "_D"
        },
        {
            "codec_type": "video",
            "stream_index": 0,
            "pts": 441008100,
            "pts_time": "4900.090000",
            "dts": 441008100,
            "dts_time": "4900.090000",
            "duration": 6171,
            "duration_time": "0.068567",
            "size": "1325",
            "pos": "145819",
            "flags": "_D"
        },
        {
            "codec_type": "video",
            "stream_index": 0,
            "pts": 441008100,
            "pts_time": "4900.090000",
            "dts": 441008100,
            "dts_time": "4900.090000",
            "duration": 6171,
            "duration_time": "0.068567",
            "size": "1386",
            "pos": "147144",
            "flags": "_D"
        },
        {
            "codec_type": "video",
            "stream_index": 0,
            "pts": 441008100,
            "pts_time": "4900.090000",
            "dts": 441008100,
            "dts_time": "4900.090000",
            "duration": 6171,
            "duration_time": "0.068567",
            "size": "1358",
            "pos": "148530",
            "flags": "_D"
        },
        {
            "codec_type": "video",
            "stream_index": 0,
            "pts": 441008100,
            "pts_time": "4900.090000",
            "dts": 441008100,
            "dts_time": "4900.090000",
            "duration": 6171,
            "duration_time": "0.068567",
            "size": "1519",
            "pos": "149888",
            "flags": "_D"
        },
        {
            "codec_type": "video",
            "stream_index": 0,
            "pts": 441008100,
            "pts_time": "4900.090000",
            "dts": 441008100,
            "dts_time": "4900.090000",
            "duration": 6171,
            "duration_time": "0.068567",
            "size": "2172",
            "pos": "151407",
            "flags": "_D"
        },
        {
            "codec_type": "video",
            "stream_index": 0,
            "pts": 441008100,
            "pts_time": "4900.090000",
            "dts": 441008100,
            "dts_time": "4900.090000",
            "duration": 6171,
            "duration_time": "0.068567",
            "size": "2404",
            "pos": "153579",
            "flags": "_D"
        },
        {
            "codec_type": "video",
            "stream_index": 0,
            "pts": 441008100,
            "pts_time": "4900.090000",
            "dts": 441008100,
            "dts_time": "4900.090000",
            "duration": 6171,
            "duration_time": "0.068567",
            "size": "2422",
            "pos": "155983",
            "flags": "_D"
        },
        {
            "codec_type": "video",
            "stream_index": 0,
            "pts": 441008100,
            "pts_time": "4900.090000",
            "dts": 441008100,
            "dts_time": "4900.090000",
            "duration": 6171,
            "duration_time": "0.068567",
            "size": "2593",
            "pos": "158405",
            "flags": "_D"
        },
        {
            "codec_type": "video",
            "stream_index": 0,
            "pts": 441008100,
            "pts_time": "4900.090000",
            "dts": 441008100,
            "dts_time": "4900.090000",
            "duration": 6171,
            "duration_time": "0.068567",
            "size": "2779",
            "pos": "160998",
            "flags": "_D"
        },
        {
            "codec_type": "video",
            "stream_index": 0,
            "pts": 441008100,
            "pts_time": "4900.090000",
            "dts": 441008100,
            "dts_time": "4900.090000",
            "duration": 6171,
            "duration_time": "0.068567",
            "size": "2215",
            "pos": "163777",
            "flags": "_D"
        },
        {
            "codec_type": "video",
            "stream_index": 0,
            "pts": 441008100,
            "pts_time": "4900.090000",
            "dts": 441008100,
            "dts_time": "4900.090000",
            "duration": 6171,
            "duration_time": "0.068567",
            "size": "1949",
            "pos": "165992",
            "flags": "_D"
        },
        {
            "codec_type": "video",
            "stream_index": 0,
            "pts": 441008100,
            "pts_time": "4900.090000",
            "dts": 441008100,
            "dts_time": "4900.090000",
            "duration": 6171,
            "duration_time": "0.068567",
            "size": "1844",
            "pos": "167941",
            "flags": "_D"
        },
        {
            "codec_type": "video",
            "stream_index": 0,
            "pts": 441008100,
            "pts_time": "4900.090000",
            "dts": 441008100,
            "dts_time": "4900.090000",
            "duration": 6171,
            "duration_time": "0.068567",
            "size": "1865",
            "pos": "169785",
            "flags": "_D"
        },
        {
            "codec_type": "video",
            "stream_index": 0,
            "pts": 441008100,
            "pts_time": "4900.090000",
            "dts": 441008100,
            "dts_time": "4900.090000",
            "duration": 6171,
            "duration_time": "0.068567",
            "size": "3236",
            "pos": "171650",
            "flags": "_D"
        },
        {
            "codec_type": "video",
            "stream_index": 0,
            "pts": 441008100,
            "pts_time": "4900.090000",
            "dts": 441008100,
            "dts_time": "4900.090000",
            "duration": 6171,
            "duration_time": "0.068567",
            "size": "2193",
            "pos": "174886",
            "flags": "_D"
        },
        {
            "codec_type": "video",
            "stream_index": 0,
            "pts": 441008100,
            "pts_time": "4900.090000",
            "dts": 441008100,
            "dts_time": "4900.090000",
            "duration": 6171,
            "duration_time": "0.068567",
            "size": "1850",
            "pos": "177079",
            "flags": "_D"
        },
        {
            "codec_type": "video",
            "stream_index": 0,
            "pts": 441008100,
            "pts_time": "4900.090000",
            "dts": 441008100,
            "dts_time": "4900.090000",
            "duration": 6171,
            "duration_time": "0.068567",
            "size": "2203",
            "pos": "178929",
            "flags": "_D"
        },
        {
            "codec_type": "video",
            "stream_index": 0,
            "pts": 441008100,
            "pts_time": "4900.090000",
            "dts": 441008100,
            "dts_time": "4900.090000",
            "duration": 6171,
            "duration_time": "0.068567",
            "size": "2150",
            "pos": "181132",
            "flags": "_D"
        },
        {
            "codec_type": "video",
            "stream_index": 0,
            "pts": 441008100,
            "pts_time": "4900.090000",
            "dts": 441008100,
            "dts_time": "4900.090000",
            "duration": 6171,
            "duration_time": "0.068567",
            "size": "1845",
            "pos": "183282",
            "flags": "_D"
        },
        {
            "codec_type": "video",
            "stream_index": 0,
            "pts": 441008100,
            "pts_time": "4900.090000",
            "dts": 441008100,
            "dts_time": "4900.090000",
            "duration": 6171,
            "duration_time": "0.068567",
            "size": "1762",
            "pos": "185127",
            "flags": "_D"
        },
        {
            "codec_type": "video",
            "stream_index": 0,
            "pts": 441008100,
            "pts_time": "4900.090000",
            "dts": 441008100,
            "dts_time": "4900.090000",
            "duration": 6171,
            "duration_time": "0.068567",
            "size": "1594",
            "pos": "186889",
            "flags": "_D"
        },
        {
            "codec_type": "video",
            "stream_index": 0,
            "pts": 441008100,
            "pts_time": "4900.090000",
            "dts": 441008100,
            "dts_time": "4900.090000",
            "duration": 6171,
            "duration_time": "0.068567",
            "size": "1607",
            "pos": "188483",
            "flags": "_D"
        },
        {
            "codec_type": "video",
            "stream_index": 0,
            "pts": 441008100,
            "pts_time": "4900.090000",
            "dts": 441008100,
            "dts_time": "4900.090000",
            "duration": 6171,
            "duration_time": "0.068567",
            "size": "1640",
            "pos": "190090",
            "flags": "_D"
        },
        {
            "codec_type": "video",
            "stream_index": 0,
            "pts": 441008100,
            "pts_time": "4900.090000",
            "dts": 441008100,
            "dts_time": "4900.090000",
            "duration": 6171,
            "duration_time": "0.068567",
            "size": "1749",
            "pos": "191730",
            "flags": "_D"
        },
        {
            "codec_type": "video",
            "stream_index": 0,
            "pts": 441008100,
            "pts_time": "4900.090000",
            "dts": 441008100,
            "dts_time": "4900.090000",
            "duration": 6171,
            "duration_time": "0.068567",
            "size": "1656",
            "pos": "193479",
            "flags": "_D"
        },
        {
            "codec_type": "video",
            "stream_index": 0,
            "pts": 441008100,
            "pts_time": "4900.090000",
            "dts": 441008100,
            "dts_time": "4900.090000",
            "duration": 6171,
            "duration_time": "0.068567",
            "size": "1648",
            "pos": "196112",
            "flags": "_D"
        }
    ]
}
